<svg width="40" height="40" viewBox="0 0 40 40" fill="none" xmlns="http://www.w3.org/2000/svg">
<rect x="0.5" y="6.21423" width="39" height="27.5714" rx="3.5" fill="white" stroke="#F5F5F5"/>
<mask id="mask0_317_5074" style="mask-type:luminance" maskUnits="userSpaceOnUse" x="0" y="5" width="40" height="30">
<rect x="0.5" y="6.21423" width="39" height="27.5714" rx="3.5" fill="white" stroke="white"/>
</mask>
<g mask="url(#mask0_317_5074)">
<rect x="28.5703" y="5.71423" width="11.4286" height="28.5714" fill="#FF3131"/>
<path fill-rule="evenodd" clip-rule="evenodd" d="M0 34.2857H11.4286V5.71423H0V34.2857Z" fill="#FF3131"/>
<path fill-rule="evenodd" clip-rule="evenodd" d="M23.3655 18.538C22.9275 18.976 22.1875 18.5799 22.309 17.9725L22.8558 15.2381L20.9511 16.1905L19.9987 13.3334L19.0463 16.1905L17.1416 15.2381L17.6884 17.9725C17.8099 18.5799 17.0699 18.976 16.6319 18.538C16.3874 18.2935 15.991 18.2935 15.7465 18.538L15.2368 19.0477L13.332 18.0953L14.2844 20L13.8034 20.481C13.5431 20.7414 13.5431 21.1635 13.8034 21.4238L16.1892 23.8096H19.0463L19.5225 26.6667H20.4749L20.9511 23.8096H23.8082L26.194 21.4238C26.4543 21.1635 26.4543 20.7414 26.194 20.481L25.713 20L26.6654 18.0953L24.7606 19.0477L24.2509 18.538C24.0064 18.2935 23.61 18.2935 23.3655 18.538Z" fill="#FF3131"/>
</g>
</svg>
