<svg width="41" height="41" viewBox="0 0 41 41" fill="none" xmlns="http://www.w3.org/2000/svg">
<circle opacity="0.1" cx="20.6773" cy="20.712" r="19.9348" transform="rotate(-0.157429 20.6773 20.712)" fill="#C4C4C4"/>
<path d="M24.6483 28.0641L16.7462 28.0858C16.2225 28.0867 15.7197 27.8797 15.3484 27.5104C14.977 27.1411 14.7673 26.6395 14.7653 26.1157L14.7327 14.2626C14.7319 13.7389 14.9388 13.2361 15.3081 12.8648C15.6775 12.4934 16.179 12.2837 16.7028 12.2817L24.6049 12.26C25.1286 12.2591 25.6314 12.466 26.0027 12.8354C26.3741 13.2047 26.5838 13.7063 26.5858 14.2301L26.6184 26.0831C26.6193 26.6069 26.4123 27.1096 26.043 27.481C25.6736 27.8524 25.1721 28.0621 24.6483 28.0641ZM16.7055 13.2694C16.4436 13.2702 16.1926 13.3749 16.0079 13.5607C15.8231 13.7464 15.7198 13.9979 15.7205 14.2599L15.753 26.113C15.7538 26.375 15.8585 26.6259 16.0443 26.8107C16.23 26.9954 16.4816 27.0988 16.7435 27.098L24.6456 27.0763C24.9076 27.0756 25.1585 26.9709 25.3432 26.7851C25.528 26.5994 25.6313 26.3478 25.6306 26.0859L25.5981 14.2328C25.5973 13.9708 25.4926 13.7198 25.3068 13.5351C25.1211 13.3504 24.8696 13.247 24.6076 13.2477L16.7055 13.2694Z" fill="black"/>
<path d="M24.6049 12.26C25.1286 12.2591 25.6314 12.466 26.0027 12.8354C26.3741 13.2047 26.5838 13.7063 26.5858 14.2301L26.6184 26.0831C26.6193 26.6069 26.4123 27.1096 26.043 27.481C25.6736 27.8524 25.1721 28.0621 24.6483 28.0641L16.7462 28.0858C16.2225 28.0867 15.7197 27.8797 15.3484 27.5104C14.977 27.1411 14.7673 26.6395 14.7653 26.1157L14.7327 14.2626C14.7319 13.7389 14.9388 13.2361 15.3081 12.8648C15.6775 12.4934 16.179 12.2837 16.7028 12.2817L24.6049 12.26ZM16.7435 27.098L24.6456 27.0763C24.9076 27.0756 25.1585 26.9709 25.3432 26.7851C25.528 26.5994 25.6313 26.3478 25.6306 26.0859L25.5981 14.2328C25.5973 13.9708 25.4926 13.7198 25.3068 13.5351C25.1211 13.3504 24.8696 13.247 24.6076 13.2477L16.7055 13.2694C16.4436 13.2702 16.1926 13.3749 16.0079 13.5607C15.8231 13.7464 15.7198 13.9979 15.7205 14.2599L15.753 26.113C15.7538 26.375 15.8585 26.6259 16.0443 26.8107C16.23 26.9954 16.4816 27.0988 16.7435 27.098ZM16.7422 26.6042C16.6112 26.6045 16.4854 26.5528 16.3925 26.4605C16.2997 26.3681 16.2473 26.2426 16.2469 26.1116L16.2144 14.2586C16.214 14.1276 16.2657 14.0018 16.3581 13.9089C16.4504 13.8161 16.5759 13.7637 16.7069 13.7633L24.6089 13.7416C24.7399 13.7412 24.8657 13.7929 24.9586 13.8853C25.0514 13.9777 25.1038 14.1031 25.1042 14.2341L25.1367 26.0872C25.1371 26.2182 25.0854 26.344 24.9931 26.4368C24.9007 26.5297 24.7752 26.5821 24.6442 26.5825L16.7422 26.6042Z" fill="white"/>
</svg>
