<svg width="28" height="29" viewBox="0 0 28 29" fill="none" xmlns="http://www.w3.org/2000/svg">
<path d="M4.8989 10.6078H8.68891V23.4938H4.8989V10.6078ZM6.78253 9.09178H6.76131C5.63037 9.09178 4.8989 8.24888 4.8989 7.19601C4.8989 6.1204 5.65311 5.30176 6.80452 5.30176C7.95744 5.30176 8.66769 6.1204 8.68891 7.19601C8.68891 8.24812 7.95744 9.09178 6.78253 9.09178ZM23.091 23.4938H19.301V16.5968C19.301 14.9307 18.3724 13.7937 16.8814 13.7937C15.7437 13.7937 15.1282 14.5608 14.8295 15.3021C14.7203 15.5674 14.7529 16.3011 14.7529 16.6718V23.4938H10.9629V10.6078H14.7529V12.5907C15.2995 11.7448 16.1553 10.6078 18.3444 10.6078C21.0565 10.6078 23.0902 12.3133 23.0902 16.1215L23.091 23.4938Z" fill="#102A53"/>
</svg>
