<svg width="29" height="29" viewBox="0 0 29 29" fill="none" xmlns="http://www.w3.org/2000/svg">
<path d="M25.3813 5.33744C24.4547 5.77519 22.8777 6.59611 22.0852 6.75302C22.0545 6.76098 22.0294 6.77121 21.9999 6.77917C21.0755 5.86729 19.8089 5.3022 18.407 5.3022C15.5815 5.3022 13.2904 7.59326 13.2904 10.4187C13.2904 10.5677 13.2779 10.8417 13.2904 10.9872C9.63154 10.9872 6.95958 9.07819 4.95959 6.62453C4.69239 6.2948 4.40814 6.46649 4.34901 6.70071C4.21598 7.23056 4.1705 8.11629 4.1705 8.74846C4.1705 10.3414 5.41552 11.9059 7.35412 12.8758C6.9971 12.9679 6.6037 13.0338 6.19437 13.0338C5.71228 13.0338 5.15742 12.9076 4.67192 12.6529C4.49228 12.5586 4.10456 12.5847 4.2194 13.0441C4.67988 14.8849 6.78107 16.1777 8.65827 16.554C8.23189 16.8053 7.32228 16.7541 6.90387 16.7541C6.74923 16.7541 6.21143 16.7177 5.86351 16.6745C5.54628 16.6359 5.05851 16.7177 5.46669 17.3363C6.34332 18.6631 8.32626 19.4966 10.0329 19.5284C8.46156 20.7609 5.89193 21.2112 3.43031 21.2112C2.93231 21.1998 2.95732 21.7672 3.35868 21.9775C5.17448 22.9303 8.14889 23.4943 10.274 23.4943C18.7219 23.4943 23.5235 17.0554 23.5235 10.9861C23.5235 10.8883 23.5212 10.6836 23.5178 10.4778C23.5178 10.4574 23.5235 10.4381 23.5235 10.4176C23.5235 10.3869 23.5144 10.3573 23.5144 10.3266C23.511 10.172 23.5076 10.0276 23.5041 9.95255C24.1738 9.46932 25.1994 8.63021 25.7179 7.9878C25.8941 7.7695 25.752 7.50458 25.5121 7.58758C24.8947 7.80247 23.8271 8.21862 23.1585 8.29821C24.4968 7.41248 25.1585 6.64159 25.727 5.78542C25.9214 5.49321 25.6781 5.19646 25.3813 5.33744Z" fill="#102A53"/>
</svg>
